# xmcd
#
# Track frame offsets: 
#        150
#        16809
#        34750
#        67504
#        83479
#        105193
#        130963
#        143339
#        160822
#        173685
#
# Disc length: 2520 seconds
#
# Revision: 0
# Processed by: cddbd v1.5.2PL0 Copyright (c) Steve Scherf et al.
# Submitted via: ExactAudioCopy v1.0b4
#
DISCID=6109d60a
DTITLE=Paul Barry - Blow Your Cool 
DYEAR=2018
DGENRE=Blues
TTITLE0=Hurricane Eye
TTITLE1=What Did I Do So Wrong
TTITLE2=Tribute To William Clarke
TTITLE3=You Can't Beat The Horses
TTITLE4=Drinking Muddy Waters
TTITLE5=Spoonful
TTITLE6=You Got To Step Back
TTITLE7=More Than I Can Give
TTITLE8=Low-Down
TTITLE9=Blow Your Cool
EXTD=
EXTT0=
EXTT1=
EXTT2=
EXTT3=
EXTT4=
EXTT5=
EXTT6=
EXTT7=
EXTT8=
EXTT9=
PLAYORDER=
